<?xml version="1.0" encoding="UTF-8"?>
<svg id="Camada_1" xmlns="http://www.w3.org/2000/svg" viewBox="0 0 640 480">
  <defs>
    <style>
      .cls-1 {
        fill: none;
        stroke: #f97316;
        stroke-linecap: round;
        stroke-linejoin: round;
        stroke-width: 29px;
      }
    </style>
  </defs>
  <path class="cls-1" d="M327.23,215.38l53.55-9.96c38.64-7.19,78.4-5.48,116.28,4.99l26.05,7.2s-33.99-140.18-175.85-80.14c-1.34.57,8.99,21.31,4.45,40.07-4.82,19.89-24.49,37.84-24.49,37.84Z"/>
  <path class="cls-1" d="M330.13,132.87c-33.32-48.3-126.77-153.35-213.26,31.07l20.5-9.31c22.82-10.36,47.34-13.74,71.46-9.84l110.67,6.83c9.97.62,16.3-10.52,10.63-18.75Z"/>
  <path class="cls-1" d="M331.65,189.84c5.34-11.07-3.23-23.78-15.5-23.11-52.44,2.88-176.02,23.7-128.5,158.56,1.23,3.5,114.85-75.05,144-135.45Z"/>
  <path class="cls-1" d="M307.2,291.07s-6.68,120.2-20.03,126.88c-13.36,6.68,86.81,0,86.81,0l-11.13-202.56"/>
</svg>