<?xml version="1.0" encoding="UTF-8"?>
<svg id="Camada_1" xmlns="http://www.w3.org/2000/svg" viewBox="0 0 260 288">
  <defs>
    <style>
      .cls-1 {
        fill: #ea580c;
      }
    </style>
  </defs>
  <path class="cls-1" d="M135.07,75c35.25,0,63.93,28.68,63.93,63.93s-28.68,63.93-63.93,63.93c-11.24,0-22.31-2.97-32.01-8.6l-4.76-2.76-5.07,2.16-18.86,8.02,8.32-15.6,3.12-5.85-3.72-5.49c-7.17-10.58-10.96-22.96-10.96-35.8,0-35.25,28.68-63.93,63.93-63.93M135.07,64c-41.38,0-74.93,33.55-74.93,74.93,0,15.55,4.74,29.99,12.85,41.97l-22.99,43.1,47.54-20.23c11.04,6.4,23.85,10.09,37.53,10.09,41.38,0,74.93-33.55,74.93-74.93s-33.55-74.93-74.93-74.93h0Z"/>
  <path class="cls-1" d="M122.76,117.56l-6.03-12.81c-1.28-2.71-4.21-4.29-7.16-3.75-6.68,1.23-16.99,6.02-13.54,24.16.1.55.28,1.08.52,1.58,2.87,6.08,22.96,45.76,59.36,49.92,0,0,16.69,1.85,20.63-13.78.75-2.99-.63-6.12-3.36-7.57l-10.41-5.51c-2.71-1.44-6.05-.84-8.1,1.44l-3.91,4.34c-1.8,2-4.65,2.76-7.18,1.84-5.62-2.04-15.71-7.36-25.07-20.88-1.8-2.6-1.46-6.11.72-8.4,1.29-1.36,2.62-3.03,3.51-4.86s.87-3.92.01-5.73Z"/>
</svg>